<?xml version="1.0" encoding="UTF-8"?><svg id="Layer_1" xmlns="http://www.w3.org/2000/svg" xmlns:xlink="http://www.w3.org/1999/xlink" viewBox="0 0 1920 1080"><defs><style>.cls-1,.cls-2{fill:#0fbd9d;}.cls-2{filter:url(#drop-shadow-1);}</style><filter id="drop-shadow-1" filterUnits="userSpaceOnUse"><feOffset dx="0" dy="0"/><feGaussianBlur result="blur" stdDeviation="50"/><feFlood flood-color="#000" flood-opacity=".15"/><feComposite in2="blur" operator="in"/><feComposite in="SourceGraphic"/></filter></defs><path class="cls-1" d="m1920,191.82v888.18H0v-191.82h459.87c10.4,0,20.38-1.75,29.68-4.98,7.32-2.54,14.22-6,20.55-10.23,2.39-1.6,4.71-3.31,6.93-5.13L1402.54,212.48s.04-.03.06-.05l7.51-5.56c6.27-4.17,13.1-7.57,20.34-10.08,9.29-3.22,19.26-4.97,29.65-4.97h459.9Z"/><path class="cls-2" d="m1920,0v191.82h-459.9c-10.39,0-20.36,1.75-29.65,4.97-7.24,2.51-14.07,5.91-20.34,10.08-2.6,1.73-5.11,3.58-7.51,5.56-.02.02-.04.03-.06.05l-885.51,655.36-6.93,5.13c-6.33,4.23-13.23,7.69-20.55,10.23-9.3,3.23-19.28,4.98-29.68,4.98H0V0h1920Z"/></svg>