<?xml version="1.0" encoding="UTF-8"?><svg id="Layer_1" xmlns="http://www.w3.org/2000/svg" viewBox="0 0 1600 480.12"><defs><style>.cls-1,.cls-2{fill:#fff;}.cls-3{fill:#0668fd;}.cls-2{opacity:.7;}</style></defs><rect class="cls-3" width="1600" height="480"/><path class="cls-1" d="M594.99,125.85v134.56c0,52.92-30.56,98.7-74.98,120.66-17.96,8.9-38.18,13.88-59.56,13.88s-41.6-4.98-59.56-13.88c-44.42-21.96-74.98-67.74-74.98-120.66V125.69h74.98v133.98c0,32.9,26.66,59.58,59.56,59.58s59.56-26.68,59.56-59.58V125.85h74.98Z"/><circle class="cls-2" cx="696.24" cy="45.74" r="45.74"/><path class="cls-1" d="M1465.45,125.69c-74.31,0-134.55,60.24-134.55,134.55s60.24,134.55,134.55,134.55,134.55-60.24,134.55-134.55-60.24-134.55-134.55-134.55Zm0,193.39c-32.9,0-59.57-26.67-59.57-59.57s26.67-59.57,59.57-59.57,59.57,26.67,59.57,59.57-26.67,59.57-59.57,59.57Z"/><polygon class="cls-1" points="1023.88 125.85 982.46 200.83 917.14 319.08 875.72 394.06 790.08 394.06 831.5 319.08 896.8 200.83 938.22 125.85 1023.88 125.85"/><polygon class="cls-1" points="1301.81 125.85 1301.81 125.97 1260.47 200.83 1195.15 319.08 1153.73 394.06 1068.07 394.06 1109.49 319.08 1174.81 200.83 1216.23 125.85 1301.81 125.85"/><rect class="cls-1" x="658.74" y="125.86" width="74.98" height="269.1"/><rect class="cls-2" x="1525.02" y="260.4" width="74.98" height="133.66"/><polygon class="cls-2" points="1019.68 319.08 1019.68 394.06 790.08 394.06 831.5 319.08 1019.68 319.08"/><polygon class="cls-2" points="1301.81 125.85 1301.81 125.97 1260.47 200.83 1073.33 200.83 1073.33 125.85 1301.81 125.85"/><path class="cls-1" d="M134.55,125.33C60.24,125.33,0,185.57,0,259.88s60.24,134.55,134.55,134.55,134.55-60.24,134.55-134.55S208.86,125.33,134.55,125.33Zm0,193.39c-32.9,0-59.57-26.67-59.57-59.57s26.67-59.57,59.57-59.57,59.57,26.67,59.57,59.57-26.67,59.57-59.57,59.57Z"/><rect class="cls-2" x="194.12" y="259.16" width="74.98" height="220.96"/><polygon class="cls-2" points="1287.67 319.08 1287.67 394.06 1068.07 394.06 1109.49 319.08 1287.67 319.08"/><polygon class="cls-2" points="1023.88 125.85 982.46 200.83 807.2 200.83 807.2 125.85 1023.88 125.85"/></svg>